<svg id="visual" viewBox="0 0 900 600" width="100%" height="600" xmlns="http://www.w3.org/2000/svg" xmlns:xlink="http://www.w3.org/1999/xlink" version="1.1"><rect x="0" y="0" width="100%" height="600" fill="transparent"></rect><path d="M0 519L21.5 509.7C43 500.3 86 481.7 128.8 466.8C171.7 452 214.3 441 257.2 435.8C300 430.7 343 431.3 385.8 438.7C428.7 446 471.3 460 514.2 468.2C557 476.3 600 478.7 642.8 474.8C685.7 471 728.3 461 771.2 450.3C814 439.7 857 428.3 878.5 422.7L900 417L900 601L878.5 601C857 601 814 601 771.2 601C728.3 601 685.7 601 642.8 601C600 601 557 601 514.2 601C471.3 601 428.7 601 385.8 601C343 601 300 601 257.2 601C214.3 601 171.7 601 128.8 601C86 601 43 601 21.5 601L0 601Z" fill="#ff5200" stroke-linecap="round" stroke-linejoin="miter"></path></svg>